<svg width="50" height="141" viewBox="0 0 50 141" fill="none" xmlns="http://www.w3.org/2000/svg">
<path d="M32.145 72.1213L25.145 65.1213L18.145 72.1213L25.145 79.1213L32.145 72.1213Z" fill="#E3B779"/>
<path d="M29.145 6.12134L25.145 2.12134L21.145 6.12134L25.145 10.1213L29.145 6.12134Z" fill="#E3B779"/>
<path d="M29.145 134.621L25.145 130.621L21.145 134.621L25.145 138.621L29.145 134.621Z" fill="#E3B779"/>
<path d="M25.145 49.6213V10.1213M25.145 49.6213L14.645 59.893M25.145 49.6213L35.1885 59.893M25.145 94.6213V130.621M25.145 94.6213L14.645 84.3496M25.145 94.6213L35.645 84.3496M25.145 10.1213L29.145 6.12134L25.145 2.12134L21.145 6.12134L25.145 10.1213ZM25.145 130.621L29.145 134.621L25.145 138.621L21.145 134.621L25.145 130.621ZM14.645 59.893L2.14502 72.1213L14.645 84.3496M14.645 59.893V18.1213M35.1885 59.893L47.145 72.1213L35.645 84.3496M35.1885 59.893V18.1213M14.645 84.3496V125.121M35.645 84.3496V125.121M25.145 57.6213L39.145 72.1213L25.145 87.1213L11.145 72.1213L25.145 57.6213ZM25.145 65.1213L32.145 72.1213L25.145 79.1213L18.145 72.1213L25.145 65.1213Z" stroke="#E3B779" stroke-width="3"/>
</svg>
