<svg width="547" height="118" viewBox="0 0 547 118" fill="none" xmlns="http://www.w3.org/2000/svg">
<path d="M428 16L499 16.5V32H515.5V47.5H531V117M428 8L506.5 8.5V21M539 117V39.5H526M499 37H510V47.5M428 0H515V16H547V0H530.5L531 31.5H547V117M520 24.5V27.5H525V24.5M520 24.5V22H525V24.5M520 24.5H525" stroke="#E3B779" stroke-width="4"/>
<path d="M16 117L16.5 46H32V29.5H47.5V14L117 14M8 117L8.5 38.5H21M117 6L39.5 6V19M37 46V35H47.5M0 117L0 30H16L16 -2H0L0 14.5L31.5 14V-2L117 -2M24.5 25H27.5V20H24.5M24.5 25H22V20H24.5M24.5 25V20" stroke="#E3B779" stroke-width="4"/>
</svg>
