<svg width="547" height="360" viewBox="0 0 547 360" fill="none" xmlns="http://www.w3.org/2000/svg">
<path d="M545 342C544.5 342 540 342 540 347C540 352 544 352 545 352C546 352 550 352 550 347C550 342 545.5 342 545 342Z" fill="#E3B779"/>
<path d="M545 342C544.5 342 540 342 540 347C540 352 544 352 545 352C546 352 550 352 550 347C550 342 545.5 342 545 342Z" fill="#E3B779"/>
<path d="M545 6C544 6 540 6 540 11.5C540 17 544 17 545 17C546 17 550 17 550 11.5C550 6 546 6 545 6Z" fill="#E3B779"/>
<path d="M545 6C544 6 540 6 540 11.5C540 17 544 17 545 17C546 17 550 17 550 11.5C550 6 546 6 545 6Z" fill="#E3B779"/>
<path d="M545 164L530 179L545 194L560 179L545 164Z" fill="#E3B779"/>
<path d="M545 164L530 179L545 194L560 179L545 164Z" fill="#E3B779"/>
<path d="M532 0V152L505 179L532 206V360M545 11.5V17M545 17C545 17 545 106.007 545 164M545 17C546 17 550 17 550 11.5C550 6 546 6 545 6C544 6 540 6 540 11.5C540 17 544 17 545 17ZM545 352V347V194M545 352C546 352 550 352 550 347C550 342 545.5 342 545 342C544.5 342 540 342 540 347C540 352 544 352 545 352ZM545 164L530 179L545 194M545 164L560 179L545 194M545 164C545 169.272 545 179 545 179V194" stroke="#E3B779" stroke-width="4"/>
<path d="M2 18C2.5 18 7 18 7 13C7 8 3 8 2 8C1 8 -3 8 -3 13C-3 18 1.5 18 2 18Z" fill="#E3B779"/>
<path d="M2 18C2.5 18 7 18 7 13C7 8 3 8 2 8C1 8 -3 8 -3 13C-3 18 1.5 18 2 18Z" fill="#E3B779"/>
<path d="M2 354C3 354 7 354 7 348.5C7 343 3 343 2 343C1 343 -3 343 -3 348.5C-3 354 1 354 2 354Z" fill="#E3B779"/>
<path d="M2 354C3 354 7 354 7 348.5C7 343 3 343 2 343C1 343 -3 343 -3 348.5C-3 354 1 354 2 354Z" fill="#E3B779"/>
<path d="M2 196L17 181L2 166L-13 181L2 196Z" fill="#E3B779"/>
<path d="M2 196L17 181L2 166L-13 181L2 196Z" fill="#E3B779"/>
<path d="M15 360L15 208L42 181L15 154L15 0M2 348.5V343M2 343C2 343 2 253.993 2 196M2 343C1 343 -3 343 -3 348.5C-3 354 1 354 2 354C3 354 7 354 7 348.5C7 343 3 343 2 343ZM2 8V13L2 166M2 8C1 8 -3 8 -3 13C-3 18 1.5 18 2 18C2.5 18 7 18 7 13C7 8 3 8 2 8ZM2 196L17 181L2 166M2 196L-13 181L2 166M2 196C2 190.728 2 181 2 181V166" stroke="#E3B779" stroke-width="4"/>
</svg>
